<?xml version="1.0" encoding="UTF-8"?>
<svg id="Layer_1" data-name="Layer 1" xmlns="http://www.w3.org/2000/svg" xmlns:xlink="http://www.w3.org/1999/xlink" viewBox="0 0 112.75 63.82">
  <defs>
    <style>
      .cls-1 {
        fill: url(#New_Gradient_Swatch_1);
      }
    </style>
    <linearGradient id="New_Gradient_Swatch_1" data-name="New Gradient Swatch 1" x1="10.44" y1="31.91" x2="102.86" y2="31.91" gradientUnits="userSpaceOnUse">
      <stop offset="0" stop-color="#ba8e42"/>
      <stop offset=".45" stop-color="#f9edb9"/>
      <stop offset="1" stop-color="#fff6cf"/>
    </linearGradient>
  </defs>
  <path class="cls-1" d="M100.68,24.65c-2.17-3.74-5.75-6.69-10.06-8.29-4.35-1.62-9.5-1.76-14.13-.4-4.97,1.47-9.04,4.82-12.31,7.52-.48.39-4.77,4.27-7.51,6.96-4.41-4.64-10.29-10.61-17.25-13.95-5.58-2.67-12.41-2.75-18.27-.21-4.99,2.16-8.55,5.91-10.01,10.55-1.29,4.09-.76,8.47,1.49,12.34,2.17,3.74,5.75,6.69,10.06,8.29,2.37.88,4.98,1.33,7.62,1.33,2.2,0,4.41-.31,6.52-.93,4.97-1.47,9.04-4.82,12.31-7.52.48-.39,4.78-4.27,7.51-6.96,4.41,4.64,10.29,10.62,17.25,13.95,2.86,1.37,6.06,2.06,9.28,2.06,3.05,0,6.14-.62,8.99-1.85,4.99-2.16,8.55-5.91,10.01-10.55,1.29-4.09.76-8.47-1.49-12.34ZM41.96,21.1c2.12.97,4.09,2.23,5.93,3.63,2.69,2.35,5.13,4.87,7.32,7.17-2.69,2.64-6.93,6.47-7.4,6.86-.26.22-.53.44-.81.66-2.03,1.48-4.36,2.91-6.96,3.64-3.5.99-7.38.89-10.65-.28-6.67-2.38-10.43-8.71-8.56-14.42,1.04-3.16,3.57-5.75,7.12-7.3,2.19-.96,4.62-1.43,7.03-1.43s4.85.49,6.97,1.47ZM71.34,42.72c-2.12-.97-4.09-2.23-5.93-3.62-2.69-2.35-5.13-4.87-7.33-7.17,2.69-2.64,6.93-6.47,7.4-6.86.26-.22.53-.44.81-.66,2.03-1.48,4.36-2.91,6.96-3.64,3.5-.99,7.38-.89,10.65.28,6.67,2.38,10.43,8.71,8.56,14.42-1.04,3.16-3.57,5.75-7.12,7.3-4.41,1.92-9.77,1.91-14-.03ZM27.48,19.97c-3.87,1.69-6.63,4.53-7.78,8.02-2.08,6.33,2,13.32,9.29,15.92,1.91.68,4.01,1.02,6.13,1.02.19,0,.39,0,.59,0-3.21.49-6.56.21-9.47-.83-7.42-2.67-11.6-9.76-9.52-16.15,1.16-3.55,3.99-6.46,7.97-8.2,2.42-1.06,5.11-1.58,7.77-1.58,1.11,0,2.22.1,3.3.28-2.81-.12-5.66.39-8.28,1.53ZM78.31,45.4c2.55,0,5.13-.52,7.51-1.55,3.87-1.69,6.63-4.53,7.78-8.02,2.08-6.33-2-13.32-9.29-15.92-2.36-.84-5.01-1.16-7.63-.96,3.32-.62,6.81-.36,9.83.74,7.31,2.68,11.42,9.8,9.36,16.21-1.16,3.61-3.98,6.54-7.96,8.27-3.62,1.57-7.69,1.95-11.44,1.14.61.06,1.22.09,1.84.09ZM23.4,45.54c-8.04-2.99-12.56-10.93-10.31-18.09,1.28-4.06,4.43-7.36,8.87-9.28,2.6-1.13,5.4-1.69,8.17-1.69.98,0,1.96.08,2.92.22-3.03-.08-6.11.48-8.94,1.71-4.36,1.9-7.48,5.12-8.77,9.08-1.16,3.56-.69,7.38,1.34,10.75,1.96,3.26,5.18,5.83,9.07,7.22,2.12.76,4.45,1.15,6.81,1.15-3.14.34-6.34-.02-9.17-1.08ZM100.21,36.37c-1.28,4.06-4.43,7.36-8.87,9.28-3.6,1.56-7.6,2.03-11.38,1.43.14,0,.29.01.43.01,2.74,0,5.5-.55,8.06-1.66,4.35-1.89,7.44-5.12,8.72-9.11,1.14-3.55.67-7.35-1.31-10.71-1.92-3.25-5.07-5.81-8.89-7.21-2.07-.76-4.35-1.14-6.65-1.15,3.27-.41,6.63-.07,9.58,1.03,8.04,2.99,12.56,10.93,10.31,18.09Z"/>
</svg>