<?xml version="1.0" encoding="UTF-8"?>
<svg id="Layer_1" data-name="Layer 1" xmlns="http://www.w3.org/2000/svg" xmlns:xlink="http://www.w3.org/1999/xlink" viewBox="0 0 112.75 63.82">
  <defs>
    <style>
      .cls-1 {
        fill: url(#linear-gradient-2);
      }

      .cls-2 {
        fill: url(#linear-gradient);
      }

      .cls-3 {
        fill: #d7d6d6;
      }
    </style>
    <linearGradient id="linear-gradient" x1="12.25" y1="43.79" x2="89.85" y2="43.79" gradientUnits="userSpaceOnUse">
      <stop offset="0" stop-color="#ba8e42"/>
      <stop offset=".49" stop-color="#f9edb9"/>
      <stop offset="1" stop-color="#fff6cf"/>
    </linearGradient>
    <linearGradient id="linear-gradient-2" x1="13.38" y1="20.23" x2="91.08" y2="20.23" gradientUnits="userSpaceOnUse">
      <stop offset=".04" stop-color="#f9edb9"/>
      <stop offset=".25" stop-color="#d7b977"/>
      <stop offset=".33" stop-color="#cba862"/>
      <stop offset=".46" stop-color="#be954a"/>
      <stop offset=".53" stop-color="#ba8e42"/>
      <stop offset=".58" stop-color="#bd9247"/>
      <stop offset=".65" stop-color="#c59f58"/>
      <stop offset=".72" stop-color="#d4b573"/>
      <stop offset=".8" stop-color="#e8d399"/>
      <stop offset=".86" stop-color="#f9edb9"/>
      <stop offset="1" stop-color="#fff6cf"/>
    </linearGradient>
  </defs>
  <g>
    <g>
      <path class="cls-3" d="M13.8,36.03h1.41c1.68,0,2.91.79,2.91,2.59s-1.13,2.62-2.86,2.62h-1.45v-5.21ZM15.33,40.73c1.35,0,2.16-.68,2.16-2.04,0-1.47-.92-2.17-2.31-2.17h-.78v4.21h.93Z"/>
      <path class="cls-3" d="M20.38,36.03h.6v5.21h-.6v-5.21Z"/>
      <path class="cls-3" d="M23.24,38.66c0-1.64.96-2.71,2.67-2.71.8,0,1.18.13,1.5.28l-.17.49c-.33-.12-.68-.24-1.32-.24-1.08,0-2.05.59-2.05,2.11s1,2.19,2.19,2.19c.39,0,.65-.05.84-.11v-2h.6v2.39c-.43.15-.91.26-1.52.26-1.72,0-2.74-1.03-2.74-2.66Z"/>
      <path class="cls-3" d="M29.85,36.03h.6v5.21h-.6v-5.21Z"/>
      <path class="cls-3" d="M34.11,36.54h-1.78v-.52h4.17v.52h-1.78v4.69h-.6v-4.69Z"/>
      <path class="cls-3" d="M39.4,36.03h.79l1.89,5.21h-.66l-.69-1.94h-2.05l-.77,1.94h-.64l2.14-5.21ZM40.57,38.8l-.81-2.35-.9,2.35h1.71Z"/>
      <path class="cls-3" d="M44.02,36.03h.6v4.68h2.26v.52h-2.87v-5.21Z"/>
      <path class="cls-3" d="M51.29,40.96l.19-.5c.38.19.77.33,1.27.33.57,0,1.22-.22,1.22-.89,0-1.3-2.56-.95-2.56-2.66,0-.84.72-1.29,1.55-1.29.59,0,.96.12,1.28.29l-.18.47c-.34-.15-.67-.25-1.08-.25-.54,0-.99.24-.99.77,0,1.17,2.59.98,2.59,2.63,0,.99-.84,1.47-1.84,1.47-.65,0-1.15-.18-1.45-.36Z"/>
      <path class="cls-3" d="M56.73,36.03h2.92v.49h-2.31v1.85h2.15v.5h-2.15v1.86h2.48v.5h-3.09v-5.21Z"/>
      <path class="cls-3" d="M64.63,40.21l-.77-1.08c-.13.02-.33.04-.49.04h-.71v2.07h-.6v-5.21h1.7c.99,0,1.68.47,1.68,1.52,0,.61-.28,1.16-.98,1.43l.7.96c.35.45.65.77,1.14.92l-.13.46c-.63-.08-1.07-.48-1.53-1.11ZM63.41,38.65c.8,0,1.38-.24,1.38-1.06s-.42-1.08-1.21-1.08h-.94v2.14h.76Z"/>
      <path class="cls-3" d="M67.39,36.03h.66l1.65,4.73,1.86-4.73h.61l-2.06,5.21h-.84l-1.88-5.21Z"/>
      <path class="cls-3" d="M73.99,36.03h.6v5.21h-.6v-5.21Z"/>
      <path class="cls-3" d="M76.85,38.66c0-1.62.99-2.71,2.67-2.71.76,0,1.22.15,1.51.29l-.18.49c-.38-.13-.71-.25-1.31-.25-1.09,0-2.06.59-2.06,2.11s1,2.19,2.19,2.19c.49,0,.9-.07,1.22-.19l.15.49c-.34.13-.74.25-1.49.25-1.72,0-2.7-1.1-2.7-2.66Z"/>
      <path class="cls-3" d="M83.21,36.03h2.92v.49h-2.31v1.85h2.15v.5h-2.15v1.86h2.48v.5h-3.09v-5.21Z"/>
      <path class="cls-3" d="M88.11,40.96l.19-.5c.38.19.77.33,1.27.33.57,0,1.22-.22,1.22-.89,0-1.3-2.56-.95-2.56-2.66,0-.84.72-1.29,1.55-1.29.59,0,.96.12,1.28.29l-.18.47c-.34-.15-.67-.25-1.08-.25-.54,0-.99.24-.99.77,0,1.17,2.59.98,2.59,2.63,0,.99-.84,1.47-1.84,1.47-.65,0-1.15-.18-1.45-.36Z"/>
      <path class="cls-3" d="M35.5,46.42h.6v4.68h2.26v.52h-2.87v-5.21Z"/>
      <path class="cls-3" d="M40.24,46.42h.6v5.21h-.6v-5.21Z"/>
      <path class="cls-3" d="M43.44,46.42h.82l1.78,4.85,2-4.85h.77v5.21h-.61v-3.5l.03-.8h-.02l-1.75,4.3h-.88l-1.55-4.32h-.02l.04.72v3.59h-.6v-5.21Z"/>
      <path class="cls-3" d="M51.41,46.42h.6v5.21h-.6v-5.21Z"/>
      <path class="cls-3" d="M55.67,46.93h-1.78v-.52h4.17v.52h-1.78v4.69h-.6v-4.69Z"/>
      <path class="cls-3" d="M59.94,46.42h2.92v.49h-2.31v1.85h2.15v.5h-2.15v1.86h2.48v.5h-3.09v-5.21Z"/>
      <path class="cls-3" d="M65.26,46.42h1.41c1.68,0,2.91.79,2.91,2.59s-1.13,2.62-2.86,2.62h-1.45v-5.21ZM66.79,51.12c1.35,0,2.16-.68,2.16-2.04,0-1.47-.92-2.17-2.31-2.17h-.78v4.21h.93Z"/>
    </g>
    <g>
      <path class="cls-2" d="M13.8,36.03h1.41c1.68,0,2.91.79,2.91,2.59s-1.13,2.62-2.86,2.62h-1.45v-5.21ZM15.33,40.73c1.35,0,2.16-.68,2.16-2.04,0-1.47-.92-2.17-2.31-2.17h-.78v4.21h.93Z"/>
      <path class="cls-2" d="M20.38,36.03h.6v5.21h-.6v-5.21Z"/>
      <path class="cls-2" d="M23.24,38.66c0-1.64.96-2.71,2.67-2.71.8,0,1.18.13,1.5.28l-.17.49c-.33-.12-.68-.24-1.32-.24-1.08,0-2.05.59-2.05,2.11s1,2.19,2.19,2.19c.39,0,.65-.05.84-.11v-2h.6v2.39c-.43.15-.91.26-1.52.26-1.72,0-2.74-1.03-2.74-2.66Z"/>
      <path class="cls-2" d="M29.85,36.03h.6v5.21h-.6v-5.21Z"/>
      <path class="cls-2" d="M34.11,36.54h-1.78v-.52h4.17v.52h-1.78v4.69h-.6v-4.69Z"/>
      <path class="cls-2" d="M39.4,36.03h.79l1.89,5.21h-.66l-.69-1.94h-2.05l-.77,1.94h-.64l2.14-5.21ZM40.57,38.8l-.81-2.35-.9,2.35h1.71Z"/>
      <path class="cls-2" d="M44.02,36.03h.6v4.68h2.26v.52h-2.87v-5.21Z"/>
      <path class="cls-2" d="M51.29,40.96l.19-.5c.38.19.77.33,1.27.33.57,0,1.22-.22,1.22-.89,0-1.3-2.56-.95-2.56-2.66,0-.84.72-1.29,1.55-1.29.59,0,.96.12,1.28.29l-.18.47c-.34-.15-.67-.25-1.08-.25-.54,0-.99.24-.99.77,0,1.17,2.59.98,2.59,2.63,0,.99-.84,1.47-1.84,1.47-.65,0-1.15-.18-1.45-.36Z"/>
      <path class="cls-2" d="M56.73,36.03h2.92v.49h-2.31v1.85h2.15v.5h-2.15v1.86h2.48v.5h-3.09v-5.21Z"/>
      <path class="cls-2" d="M64.63,40.21l-.77-1.08c-.13.02-.33.04-.49.04h-.71v2.07h-.6v-5.21h1.7c.99,0,1.68.47,1.68,1.52,0,.61-.28,1.16-.98,1.43l.7.96c.35.45.65.77,1.14.92l-.13.46c-.63-.08-1.07-.48-1.53-1.11ZM63.41,38.65c.8,0,1.38-.24,1.38-1.06s-.42-1.08-1.21-1.08h-.94v2.14h.76Z"/>
      <path class="cls-2" d="M67.39,36.03h.66l1.65,4.73,1.86-4.73h.61l-2.06,5.21h-.84l-1.88-5.21Z"/>
      <path class="cls-2" d="M73.99,36.03h.6v5.21h-.6v-5.21Z"/>
      <path class="cls-2" d="M76.85,38.66c0-1.62.99-2.71,2.67-2.71.76,0,1.22.15,1.51.29l-.18.49c-.38-.13-.71-.25-1.31-.25-1.09,0-2.06.59-2.06,2.11s1,2.19,2.19,2.19c.49,0,.9-.07,1.22-.19l.15.49c-.34.13-.74.25-1.49.25-1.72,0-2.7-1.1-2.7-2.66Z"/>
      <path class="cls-2" d="M83.21,36.03h2.92v.49h-2.31v1.85h2.15v.5h-2.15v1.86h2.48v.5h-3.09v-5.21Z"/>
      <path class="cls-2" d="M88.11,40.96l.19-.5c.38.19.77.33,1.27.33.57,0,1.22-.22,1.22-.89,0-1.3-2.56-.95-2.56-2.66,0-.84.72-1.29,1.55-1.29.59,0,.96.12,1.28.29l-.18.47c-.34-.15-.67-.25-1.08-.25-.54,0-.99.24-.99.77,0,1.17,2.59.98,2.59,2.63,0,.99-.84,1.47-1.84,1.47-.65,0-1.15-.18-1.45-.36Z"/>
      <path class="cls-2" d="M35.5,46.42h.6v4.68h2.26v.52h-2.87v-5.21Z"/>
      <path class="cls-2" d="M40.24,46.42h.6v5.21h-.6v-5.21Z"/>
      <path class="cls-2" d="M43.44,46.42h.82l1.78,4.85,2-4.85h.77v5.21h-.61v-3.5l.03-.8h-.02l-1.75,4.3h-.88l-1.55-4.32h-.02l.04.72v3.59h-.6v-5.21Z"/>
      <path class="cls-2" d="M51.41,46.42h.6v5.21h-.6v-5.21Z"/>
      <path class="cls-2" d="M55.67,46.93h-1.78v-.52h4.17v.52h-1.78v4.69h-.6v-4.69Z"/>
      <path class="cls-2" d="M59.94,46.42h2.92v.49h-2.31v1.85h2.15v.5h-2.15v1.86h2.48v.5h-3.09v-5.21Z"/>
      <path class="cls-2" d="M65.26,46.42h1.41c1.68,0,2.91.79,2.91,2.59s-1.13,2.62-2.86,2.62h-1.45v-5.21ZM66.79,51.12c1.35,0,2.16-.68,2.16-2.04,0-1.47-.92-2.17-2.31-2.17h-.78v4.21h.93Z"/>
    </g>
  </g>
  <g>
    <g>
      <path d="M28.22,30.33h-14.71c-.09-.44-.15-1.02-.12-1.4l1.86-.52c.7-.17,1.08-.9,1.08-1.69l.09-4.3v-9.04c0-.7-.26-1.6-.87-1.8l-1.83-.61c0-.26.03-.87.12-1.19h7.62c.09.44.15.9.12,1.28l-1.4.35c-.79.17-1.1.26-1.1,1.13v9.86l.15,5.93,4.77-.12c1.83-.06,2.97-1.34,3.52-2.88l1.31.2-.58,4.8Z"/>
      <path d="M40.66,30.33h-8.23c-.09-.44-.15-.9-.12-1.28l1.54-.61c.76-.29,1.08-.9,1.1-2.01l.06-4.04v-8.72c0-.93-.26-1.86-1.45-2.27l-1.16-.44c-.06-.26-.06-.87.03-1.19h7.62c.09.44.12.93.09,1.31l-1.19.26c-.93.2-1.28,1.02-1.28,2.24v8.81l.09,4.94c0,.73.2.93.81,1.05l2.24.49c0,.26-.03,1.13-.15,1.45Z"/>
      <path d="M60.15,30.33h-14.71c-.09-.44-.15-1.02-.12-1.4l1.86-.52c.7-.17,1.08-.9,1.08-1.69l.09-4.3v-9.04c0-.7-.26-1.6-.87-1.8l-1.83-.61c0-.26.03-.87.12-1.19h7.62c.09.44.15.9.12,1.28l-1.4.35c-.79.17-1.1.26-1.1,1.13v9.86l.15,5.93,4.77-.12c1.83-.06,2.97-1.34,3.52-2.88l1.31.2-.58,4.8Z"/>
      <path d="M89.28,9.77c.09.44.15.76.12,1.13l-1.42.49c-.7.23-1.22,1.02-1.05,2.3l1.8,13.2c.09.64.55,1.25,1.05,1.45l1.31.64c0,.26-.03,1.02-.12,1.34h-7.47c-.06-.44-.12-.9-.12-1.28l1.28-.38c.87-.26,1.13-1.08,1.13-2.09,0-.35-.03-.73-.09-1.1l-1.16-9.71-.09-1.54h-.15l-6.51,16.11-1.92.35-6.25-16.66h-.17l-.03,1.48-1.83,11.66c-.09.52,0,.84.32.93l2.73.87c0,.26,0,1.05-.12,1.37h-7.53c-.09-.44-.15-.9-.12-1.28l1.05-.52c.81-.41,1.4-1.37,1.54-2.27l2.18-13.06c.12-.67-.29-1.42-.84-1.63l-1.83-.61c0-.26.03-.87.12-1.19h5.73l4.68,12.07,1.48,4.36h.26l1.57-4.51,5-11.92h5.47Z"/>
    </g>
    <g>
      <path class="cls-1" d="M28.22,30.33h-14.71c-.09-.44-.15-1.02-.12-1.4l1.86-.52c.7-.17,1.08-.9,1.08-1.69l.09-4.3v-9.04c0-.7-.26-1.6-.87-1.8l-1.83-.61c0-.26.03-.87.12-1.19h7.62c.09.44.15.9.12,1.28l-1.4.35c-.79.17-1.1.26-1.1,1.13v9.86l.15,5.93,4.77-.12c1.83-.06,2.97-1.34,3.52-2.88l1.31.2-.58,4.8Z"/>
      <path class="cls-1" d="M40.66,30.33h-8.23c-.09-.44-.15-.9-.12-1.28l1.54-.61c.76-.29,1.08-.9,1.1-2.01l.06-4.04v-8.72c0-.93-.26-1.86-1.45-2.27l-1.16-.44c-.06-.26-.06-.87.03-1.19h7.62c.09.44.12.93.09,1.31l-1.19.26c-.93.2-1.28,1.02-1.28,2.24v8.81l.09,4.94c0,.73.2.93.81,1.05l2.24.49c0,.26-.03,1.13-.15,1.45Z"/>
      <path class="cls-1" d="M60.15,30.33h-14.71c-.09-.44-.15-1.02-.12-1.4l1.86-.52c.7-.17,1.08-.9,1.08-1.69l.09-4.3v-9.04c0-.7-.26-1.6-.87-1.8l-1.83-.61c0-.26.03-.87.12-1.19h7.62c.09.44.15.9.12,1.28l-1.4.35c-.79.17-1.1.26-1.1,1.13v9.86l.15,5.93,4.77-.12c1.83-.06,2.97-1.34,3.52-2.88l1.31.2-.58,4.8Z"/>
      <path class="cls-1" d="M89.28,9.77c.09.44.15.76.12,1.13l-1.42.49c-.7.23-1.22,1.02-1.05,2.3l1.8,13.2c.09.64.55,1.25,1.05,1.45l1.31.64c0,.26-.03,1.02-.12,1.34h-7.47c-.06-.44-.12-.9-.12-1.28l1.28-.38c.87-.26,1.13-1.08,1.13-2.09,0-.35-.03-.73-.09-1.1l-1.16-9.71-.09-1.54h-.15l-6.51,16.11-1.92.35-6.25-16.66h-.17l-.03,1.48-1.83,11.66c-.09.52,0,.84.32.93l2.73.87c0,.26,0,1.05-.12,1.37h-7.53c-.09-.44-.15-.9-.12-1.28l1.05-.52c.81-.41,1.4-1.37,1.54-2.27l2.18-13.06c.12-.67-.29-1.42-.84-1.63l-1.83-.61c0-.26.03-.87.12-1.19h5.73l4.68,12.07,1.48,4.36h.26l1.57-4.51,5-11.92h5.47Z"/>
    </g>
  </g>
</svg>